<?xml version="1.0" encoding="UTF-8"?>
<!--Generator: Apple Native CoreSVG 341-->
<!DOCTYPE svg
PUBLIC "-//W3C//DTD SVG 1.1//EN"
       "http://www.w3.org/Graphics/SVG/1.1/DTD/svg11.dtd">
<svg version="1.1" xmlns="http://www.w3.org/2000/svg" xmlns:xlink="http://www.w3.org/1999/xlink" viewBox="0 0 63.999 105.536">
 <g>
  <rect height="105.536" opacity="0" width="63.999" x="0" y="0"/>
  <path d="M14.5928 97.418C10.3594 97.418 8.01855 95.1768 8.01855 91.1924L8.01855 14.2441C8.01855 10.2598 10.3594 8.01855 14.5928 8.01855L49.4561 8.01855C53.6396 8.01855 55.9805 10.2598 55.9805 14.2441L55.9805 91.1924C55.9805 95.1768 53.6396 97.418 49.4561 97.418Z" fill="white" fill-opacity="0.2125"/>
  <path d="M13.5469 105.437L50.4521 105.437C58.5703 105.437 63.999 100.257 63.999 92.4873L63.999 12.9492C63.999 5.17969 58.5703 0 50.4521 0L13.5469 0C5.42871 0 0 5.17969 0 12.9492L0 92.4873C0 100.257 5.42871 105.437 13.5469 105.437ZM14.5928 97.418C10.3594 97.418 8.01855 95.1768 8.01855 91.1924L8.01855 14.2441C8.01855 10.2598 10.3594 8.01855 14.5928 8.01855L49.4561 8.01855C53.6396 8.01855 55.9805 10.2598 55.9805 14.2441L55.9805 91.1924C55.9805 95.1768 53.6396 97.418 49.4561 97.418ZM21.4658 93.7822L42.6328 93.7822C43.9775 93.7822 44.9238 92.8359 44.9238 91.4414C44.9238 90.0469 43.9775 89.1504 42.6328 89.1504L21.4658 89.1504C20.1211 89.1504 19.125 90.0469 19.125 91.4414C19.125 92.8359 20.1211 93.7822 21.4658 93.7822ZM25.998 18.5771L38.0508 18.5771C39.9932 18.5771 41.5371 17.0332 41.5371 15.041C41.5371 13.0986 39.9932 11.5547 38.0508 11.5547L25.998 11.5547C24.0059 11.5547 22.4619 13.0986 22.4619 15.041C22.4619 17.0332 24.0059 18.5771 25.998 18.5771Z" fill="white" fill-opacity="0.85"/>
 </g>
</svg>
